<svg width="21" height="22" viewBox="0 0 21 22" fill="none" xmlns="http://www.w3.org/2000/svg">
<path d="M10.5 0C4.71027 0 0 4.93456 0 11C0 17.0654 4.71027 22 10.5 22C16.2897 22 21 17.0654 21 11C21 4.93456 16.2897 0 10.5 0ZM17.4423 5.07269C18.6914 6.6715 19.4478 8.70787 19.4676 10.9255C19.1719 10.86 16.2067 10.23 13.2225 10.6231C12.979 10.0003 12.7491 9.45246 12.4343 8.77734C15.7503 7.359 17.2532 5.34063 17.4423 5.07269ZM16.4452 3.98617C16.2839 4.22688 14.9339 6.12789 11.7448 7.38016C10.2751 4.55138 8.6462 2.22754 8.39831 1.8798C11.2425 1.16156 14.2396 1.93613 16.4452 3.98617ZM6.68702 2.51137C6.92348 2.85108 8.52613 5.17781 10.0122 7.94524C5.81696 9.11235 2.12193 9.09554 1.72081 9.08999C2.30238 6.17442 4.1779 3.75122 6.68702 2.51137ZM1.53139 11.0143C1.53139 10.9183 1.53321 10.8226 1.53596 10.7272C1.92836 10.7356 6.27451 10.7943 10.7534 9.3901C11.0101 9.9165 11.2554 10.4508 11.4805 10.9846C8.23738 11.9416 5.29081 14.6894 3.83703 17.2966C2.40458 15.6309 1.53139 13.4275 1.53139 11.0143ZM4.99499 18.4266C5.93182 16.4203 8.4743 13.8305 12.0901 12.5382C13.3492 15.9661 13.8699 18.839 14.0033 19.6633C11.1195 20.9502 7.65188 20.5971 4.99499 18.4266ZM15.5111 18.8031C15.4192 18.2316 14.9418 15.4811 13.7688 12.1041C16.5792 11.6328 19.0484 12.4043 19.3552 12.5057C18.9555 15.12 17.5231 17.3778 15.5111 18.8031Z" fill="#F050E0"/>
</svg>
