<svg width="13" height="13" viewBox="0 0 13 13" fill="none" xmlns="http://www.w3.org/2000/svg">
<path d="M12.9955 10.7912C13.0448 10.658 7.3863 6.3854 7.3863 6.3854C6.6779 5.86263 6.30532 5.85441 5.60479 6.3854C5.60479 6.3854 -0.0454375 10.6545 0.00211914 10.7859L0.000976562 10.7868C0.00156055 10.788 0.0025 10.7888 0.00328711 10.7898C0.0511976 10.9204 0.1209 11.042 0.209434 11.1493C0.246834 11.1946 0.291902 11.2326 0.335244 11.2721L0.333137 11.2737C0.33659 11.2768 0.341186 11.2782 0.344639 11.2813C0.52834 11.4451 0.760004 11.5513 1.01736 11.5816C1.0214 11.582 1.02465 11.5842 1.02869 11.5846H1.04423C1.08335 11.5884 1.12055 11.5978 1.16062 11.5978H11.843C12.369 11.5978 12.8147 11.267 12.9917 10.8033C12.9938 10.7998 12.997 10.7973 12.999 10.7938L12.9955 10.7912Z" fill="#96A9B2"/>
<path d="M6.50326 5.89505L0.0307617 10.7494V3.87241C0.0307617 3.2021 0.574045 2.65881 1.24436 2.65881H11.7622C12.4325 2.65881 12.9758 3.2021 12.9758 3.87241V10.7494L6.50326 5.89505Z" fill="#B9C5C6"/>
<path d="M0.106445 3.45053L5.63259 7.79103C6.33007 8.30572 6.69691 8.31385 7.38665 7.79103L12.9041 3.45741C12.8084 3.28389 12.6651 3.14681 12.5012 3.0375L12.5771 2.97804C12.3919 2.80942 12.1551 2.70011 11.8923 2.67188L1.11509 2.67226C0.853006 2.70011 0.615857 2.8098 0.431014 2.97804L0.506348 3.03676C0.344355 3.14455 0.202371 3.27927 0.106445 3.45053Z" fill="#EDECE6"/>
<path d="M0.104477 3.4596C0.0559551 3.59074 5.62724 7.79746 5.62724 7.79746C6.32472 8.31215 6.69157 8.32028 7.3813 7.79746C7.3813 7.79746 12.9445 3.59414 12.8976 3.4648L12.8988 3.46386C12.8982 3.46272 12.8973 3.46199 12.8965 3.46094C12.8493 3.33235 12.7807 3.21268 12.6935 3.10702C12.6567 3.06236 12.6123 3.02499 12.5697 2.98609L12.5718 2.98449C12.5684 2.98147 12.5638 2.98005 12.5604 2.97702C12.3795 2.81569 12.1515 2.71118 11.8981 2.68135C11.8941 2.68087 11.8909 2.67881 11.8869 2.67833H11.8717C11.8331 2.67465 11.7965 2.66541 11.757 2.66541H1.23923C0.721316 2.66541 0.282516 2.99112 0.10826 3.44767C0.106178 3.45107 0.102979 3.45353 0.101074 3.45701L0.104477 3.4596Z" fill="#DCE2E2"/>
</svg>
