<svg width="22" height="22" viewBox="0 0 22 22" fill="none" xmlns="http://www.w3.org/2000/svg">
<path d="M11 0C4.92472 0 0 4.92472 0 11C0 17.0753 4.92472 22 11 22C17.0753 22 22 17.0753 22 11C22 4.92472 17.0753 0 11 0ZM10.497 10.6554C10.3688 10.8692 10.1377 11 9.88847 11H9.87472C9.68665 11 9.50613 11.075 9.37306 11.208L9.12202 11.4591C8.98363 11.5975 8.98363 11.8223 9.12202 11.9607L9.37306 12.2118C9.50613 12.3448 9.58109 12.5254 9.58109 12.7134V13.129C9.58109 13.5211 9.26351 13.8387 8.87141 13.8387H8.6004C8.33161 13.8387 8.08589 13.687 7.96568 13.4462L6.96238 11.44C6.85415 11.2235 6.5654 11.1765 6.39419 11.3477L5.5306 12.2109C5.39754 12.344 5.21702 12.4189 5.02895 12.4189H2.25367C2.17871 11.9558 2.12903 11.4844 2.12903 11C2.12903 6.10855 6.10855 2.12903 11 2.12903C11.9541 2.12903 12.8718 2.28472 13.7336 2.5646L11.5087 4.27359C11.2821 4.42484 11.3034 4.76415 11.5469 4.88613L12.0273 5.12609C12.2677 5.24629 12.4194 5.49202 12.4194 5.76081V9.22581C12.4194 9.42185 12.2606 9.58064 12.0645 9.58064H11.9288C11.7944 9.58064 11.6715 9.5048 11.6117 9.3846C11.5425 9.24621 11.3473 9.23867 11.2675 9.37129L10.497 10.6554ZM18.0968 15.5433C18.0968 15.7313 18.0218 15.9119 17.8888 16.0449L17.4643 16.4694C17.3312 16.6025 17.1507 16.6774 16.9626 16.6774H16.2902C16.1021 16.6774 15.9216 16.6025 15.7885 16.4694L15.2115 15.8923C15.0665 15.7474 14.8865 15.6424 14.6889 15.5877C14.4913 15.533 14.2829 15.5303 14.084 15.5801L13.1406 15.816C13.0842 15.8302 13.0266 15.8373 12.9685 15.8373H12.5098C12.3218 15.8373 12.1412 15.7624 12.0082 15.6293L11.4799 15.101C11.4134 15.0344 11.3761 14.9441 11.3761 14.85V14.3976C11.3761 14.2525 11.4644 14.1221 11.5992 14.068L13.3442 13.3699C13.432 13.3348 13.5154 13.2892 13.5921 13.2346L14.6437 12.4854C14.7038 12.4426 14.7758 12.4197 14.8496 12.4198H15.3858C15.5291 12.4198 15.6586 12.5058 15.7136 12.6385L15.9509 13.2084C15.9644 13.2407 15.9871 13.2683 16.0162 13.2877C16.0453 13.3072 16.0796 13.3175 16.1146 13.3175H16.2831C16.3621 13.3175 16.4317 13.2652 16.4534 13.1898L16.6397 12.548C16.6619 12.4721 16.7311 12.4202 16.81 12.4202H17.0788C17.1769 12.4202 17.2562 12.4996 17.2562 12.5977V13.1712C17.2562 13.2652 17.2935 13.3557 17.36 13.4222L17.8883 13.9505C18.0214 14.0835 18.0963 14.2641 18.0963 14.4521V15.5433H18.0968Z" fill="#F8961E"/>
</svg>
